<?xml version="1.0" encoding="utf-8"?>
<!-- Generator: Adobe Illustrator 21.1.0, SVG Export Plug-In . SVG Version: 6.00 Build 0)  -->
<svg version="1.1" id="Capa_1" xmlns="http://www.w3.org/2000/svg" xmlns:xlink="http://www.w3.org/1999/xlink" x="0px" y="0px"
	 viewBox="0 0 400 400" style="enable-background:new 0 0 400 400;" xml:space="preserve">
<path d="M185.4,99.4c27.3,0,49.4-22.1,49.4-50c0-27.3-22.1-49.4-49.4-49.4c-27.3,0-50,22.1-50,49.4C136,77.3,158.1,99.4,185.4,99.4z
	 M185.4,13c20.1,0,36.4,16.2,36.4,36.4s-16.2,37-36.4,37s-37-16.2-37-37C149,29.2,165.3,13,185.4,13z M281.5,192.9
	c10.4,10.4,16.2,24.7,16.2,39c0,24-14.9,44.8-37.7,53.2l10.4,37h-51.3V400h-13v-90.9h46.8l-9.1-33.1l6.5-1.3
	c20.1-4.5,34.4-22.1,34.4-42.2c0-11.7-4.5-22.1-12.3-30.5L225,146.8c-1.3-1.3-3.2-3.9-5.2-5.8c-4.5-5.8-11-13.6-16.2-13.6h-35.1
	c-13.6,0-14.3,14.9-14.3,16.9v55.2l51.3,54.5c3.2,3.2,9.1,3.2,12.3,0c3.2-3.2,3.9-9.1,0.6-12.3l-44.8-48.7v-33.1h13v27.9l40.9,44.8
	c7.8,7.8,7.8,21.4-0.6,30.5c-8.4,8.4-22.1,8.4-30.5,0l-37.7-39.6l-37,85.7h58.4V400h-13v-77.9h-64.9L149,213l-7.8-8.4v-60.4
	c0-10.4,6.5-29.9,27.3-29.9h35.1c11,0,19.5,10.4,26,18.2c1.9,1.9,3.2,3.9,4.5,5.8L281.5,192.9z"/>
</svg>
