<?xml version="1.0" encoding="utf-8"?>
<!-- Generator: Adobe Illustrator 21.1.0, SVG Export Plug-In . SVG Version: 6.00 Build 0)  -->
<svg version="1.1" id="Capa_1" xmlns="http://www.w3.org/2000/svg" xmlns:xlink="http://www.w3.org/1999/xlink" x="0px" y="0px"
	 viewBox="0 0 400 400" style="enable-background:new 0 0 400 400;" xml:space="preserve">
<path d="M366,251.9c-10.3-16.3-42.8-61.9-44.8-64.6c-3.2-4.8-7.9-7.9-13.5-8.7c-5.9-1.2-12.3,0.4-17.4,4c-10.3,7.1-13.5,21-6.7,30.9
	l7.5,14.7l-38.5-15.5l-41.6-86l23.4,11.9c12.7,7.9,28.9,4,36.9-8.7c4-5.9,5.2-13.5,3.6-20.2c-1.6-7.1-5.9-13.1-11.9-17.1
	c-3.6-2.4-65-43.6-86.8-57.1c-27.4-16.7-62.3-17.8-93.2-3.2C58.3,43.7,39.6,63.9,30.1,88.9s-8.7,52.3,1.6,76.9l0,0l49.2,105.5
	c4.8,9.9,14.3,15.5,24.6,15.5c4,0,7.5-0.8,11.5-2.4c5.2-2.4,9.1-5.9,11.5-10.3l6.3,13.5c3.2,6.7,8.3,11.5,15.5,13.9
	c3.2,1.2,5.9,1.6,9.1,1.6c3.6,0,6.7-0.8,10.3-2l4.8,1.6c-2.8,2.4-5.2,5.2-6.7,8.7c-2.8,5.9-2.8,11.9-0.4,17.8
	c2.4,5.6,6.3,9.5,11.9,11.5l82.9,32.5l0,0c8.7,3.2,17.8,4.8,26.6,4.8c32.9,0,65-19.8,79.7-51.9C380.2,300.7,379.1,272.9,366,251.9z
	 M154.2,290c-3.6-1.2-6.7-4-8.3-7.5l-15.5-32.9c0-0.4-0.4-0.8-0.4-0.8l-32.9-69.8c-1.6-3.2-5.2-4.4-7.9-2.8
	c-3.2,1.6-4.4,5.2-2.8,7.9l32.9,69.8c3.6,7.5,0.4,16.3-7.1,19.8c-7.5,3.6-16.3,0.4-19.8-7.1L42.8,161.1
	c-19.4-45.2,0.4-96.8,44.8-117.8c27.4-12.7,57.9-11.9,82.1,2.8c21.8,13.1,86,56.3,86.4,56.7l0,0c3.6,2,5.6,5.6,6.7,9.5
	c0.8,4,0,7.9-2,11.5c-2,3.6-5.6,5.6-9.5,6.7c-4,0.8-7.9,0-11.5-2c0,0-0.4,0-0.4-0.4L196.2,106c-2-1.2-4.4-0.8-6.3,0.4
	c-21.8,15.5-57.1,12.7-75.3-5.6c-2.4-2.4-6.3-2.4-8.7,0s-2.4,6.3,0,8.7c21.4,21.4,60.3,25.4,87.2,9.5l41.6,87.2l-13.9-6.7
	c-6.7-2.8-13.9-1.6-20.2,2L182,161.9c-1.6-3.2-5.2-4.4-7.9-2.8c-3.2,1.6-4.4,5.2-2.8,7.9l20.6,43.6c-0.4,0.4-0.4,0.8-0.8,1.6
	c-1.6,3.6-2.4,7.1-2,11.1l-5.9-2.4c-6.3-2.4-13.1-2-19,1.2L151,194.4c-1.6-3.2-5.2-4.4-7.9-2.8c-3.2,1.6-4.4,5.2-2.8,7.9l14.7,31.3
	c-0.4,0.8-0.8,1.6-1.2,2.8c-2.8,5.9-2.8,11.9-0.4,17.8c2,4.4,5.2,7.9,9.1,10.3c-2.8,2.4-5.2,5.2-6.7,8.7c-2.8,5.9-2.8,11.9-0.4,17.8
	c0.4,0.8,0.8,1.6,1.2,2.4C155.4,290.4,155,290,154.2,290z M357.6,320.9c-16.3,35.3-56.3,53.5-91.2,41.2l-82.9-32.5
	c-2.4-0.8-4-2.8-5.2-5.2c-1.2-2.4-0.8-5.6,0.4-8.3c2.4-5.6,9.1-8.3,14.3-6.3l55.1,21.8c3.2,1.2,6.7-0.4,7.9-3.6
	c1.2-3.2-0.4-6.7-3.6-7.9l-55.1-21.4l-0.8-0.4c0,0-27-10.7-27.8-11.1c-1.6-0.8-2.4-2.4-3.2-4c-1.2-2.4-0.8-5.6,0.4-8.3
	c1.2-3.2,4-5.2,6.7-6.3c2.4-0.8,62.7,21.8,62.7,21.8c3.2,1.2,6.7-0.4,7.9-3.6c1.2-3.2-0.4-6.7-3.6-7.9l-71-27.8
	c-2.4-0.8-4-2.8-5.2-5.2c-1.2-2.4-0.8-5.6,0.4-8.3c1.2-2.4,2.8-4,4.8-5.6c2.8-1.6,6.3-2.4,9.5-1.2l82.5,32.5
	c3.2,1.2,6.7-0.4,7.9-3.6c1.2-3.2-0.4-6.7-3.6-7.9l-57.9-23l0,0c-2.8-1.2-4.8-3.2-5.6-5.6c-1.2-2.4-0.8-5.2,0-7.5
	c0.8-2,2.4-3.6,4-4.8c3.2-2.4,7.1-3.2,10.3-1.6l85.3,35.7c2.4,0.8,5.2,0.4,6.7-1.6c1.6-2,2-4.8,0.8-6.7c0,0-15.9-29.7-15.9-30.1
	c-3.2-4.8-1.6-11.1,3.6-14.7c2.4-1.6,5.6-2.4,8.3-2c2.4,0.4,4.4,2,5.9,4l0,0c0.4,0.4,34.1,48,44.4,64.2
	C366.8,275.7,367.6,299.1,357.6,320.9z"/>
</svg>
