<?xml version="1.0" encoding="utf-8"?>
<!-- Generator: Adobe Illustrator 21.1.0, SVG Export Plug-In . SVG Version: 6.00 Build 0)  -->
<svg version="1.1" id="Capa_1" xmlns="http://www.w3.org/2000/svg" xmlns:xlink="http://www.w3.org/1999/xlink" x="0px" y="0px"
	 viewBox="0 0 400 400" style="enable-background:new 0 0 400 400;" xml:space="preserve">
<g>
	<g>
		<path d="M199.4,364.8l-4.8-3.6c-7.2-3.6-178-113-178-224.9c0-55.3,45.7-101,101-101c33.7,0,63.7,15.6,81.8,42.1
			c19.2-26.5,49.3-42.1,81.8-42.1c55.3,0,101,45.7,101,101c0,27.7-10.8,58.9-32.5,90.2l-4.8,7.2l-7.2-6c-10.8-8.4-24.1-12-37.3-12
			c-36.1,0-64.9,28.9-64.9,64.9c0,14.4,4.8,27.7,13.2,38.5l4.8,7.2l-7.2,6c-24.1,19.2-42.1,30.1-42.1,30.1L199.4,364.8z M117.6,53.3
			c-45.7,0-83,37.3-83,83c0,92.6,138.3,188.8,166,208c6-3.6,16.8-10.8,30.1-21.6c-7.2-13.2-10.8-26.5-10.8-42.1
			c0-45.7,37.3-83,83-83c14.4,0,27.7,3.6,39.7,10.8c15.6-26.5,24.1-50.5,24.1-72.2c0-45.7-37.3-83-83-83c-31.3,0-60.1,18-74.6,45.7
			l-9.6,16.8l-8.4-15.6C176.5,70.1,148.9,53.3,117.6,53.3z"/>
	</g>
	<g>
		<path d="M300.4,363.6c-26.5,0-50.5-12-66.1-33.7c-10.8-14.4-16.8-31.3-16.8-49.3c0-45.7,37.3-83,83-83c16.8,0,33.7,4.8,48.1,15.6
			c21.6,15.6,34.9,40.9,34.9,67.3C383.4,326.3,346.1,363.6,300.4,363.6z M300.4,216.8c-36.1,0-64.9,28.9-64.9,64.9
			c0,14.4,4.8,27.7,13.2,38.5c12,16.8,31.3,26.5,51.7,26.5c36.1,0,64.9-28.9,64.9-64.9c0-20.4-9.6-39.7-26.5-52.9
			C326.9,220.4,313.6,216.8,300.4,216.8z"/>
	</g>
	<g>
		<rect x="290.8" y="243.3" width="18" height="74.6"/>
	</g>
	<g>
		<rect x="263.1" y="272.2" width="74.6" height="18"/>
	</g>
</g>
</svg>
