<?xml version="1.0" encoding="utf-8"?>
<!-- Generator: Adobe Illustrator 21.0.2, SVG Export Plug-In . SVG Version: 6.00 Build 0)  -->
<svg version="1.1" id="Capa_1" xmlns="http://www.w3.org/2000/svg" xmlns:xlink="http://www.w3.org/1999/xlink" x="0px" y="0px"
	 viewBox="0 0 2527 839" style="enable-background:new 0 0 2527 839;" xml:space="preserve">
<style type="text/css">
	.st0{fill:#FFFFFF;}
</style>
<g>
	<g>
		<g>
			<g>
				<g>
					<polygon class="st0" points="93.5,161.7 93.5,447.8 295,447.8 295,353 198.5,353 198.5,256.6 295,256.6 295,161.7 					"/>
				</g>
			</g>
			<g>
				<g>
					<polygon class="st0" points="398.2,161.7 398.2,256.6 494.7,256.6 494.7,353 398.2,353 398.2,447.8 599.7,447.8 599.7,161.7 
											"/>
				</g>
			</g>
		</g>
		<g>
			<g>
				<g>
					<path class="st0" d="M1043.1,450.6h-25.4v-159c0-58.4-22.9-87.9-68.6-87.9c-42.6,0-75.7,30.5-75.7,88.4v158.4h-25.4V281.5
						c0-48.8-27.4-77.7-69.6-77.7c-40.1,0-74.6,34.5-74.6,86.3v160.5h-25.4V187.1h25.4v41.6c10.7-24.9,40.6-48.2,77.7-48.2
						c42.2,0,71.6,21.3,83.3,52.8c15.2-35,48.7-52.8,87.4-52.8c58.4,0,90.9,42.2,90.9,100.6V450.6z"/>
				</g>
			</g>
			<g>
				<g>
					<path class="st0" d="M1116.7,187.1h25.4v263.6h-25.4V187.1z M1129.4,96.2c11.7,0,20.8,9.1,20.8,20.8c0,11.7-9.1,20.8-20.8,20.8
						c-11.7,0-20.8-9.1-20.8-20.8C1108.6,105.3,1117.8,96.2,1129.4,96.2"/>
				</g>
			</g>
			<g>
				<g>
					<path class="st0" d="M1239.1,360.8c15.7,10.7,35.6,18.8,57.4,18.8c13.2,0,18.3-4.6,18.3-9.6c0-22.3-120.9-12.7-120.9-107.2
						c0-52.8,47.7-86.8,109.7-86.8c49.8,0,82.3,22.3,101.1,44.2l-63.5,50.3c-9.6-8.6-22.3-17.3-39.6-17.3c-10.7,0-15.2,4.6-15.2,9.1
						c0,26.4,122.4,15.8,122.4,104.6c0,59.4-46.2,90.4-111.7,90.4c-50.3,0-94.5-22.3-111.7-42.6L1239.1,360.8z"/>
				</g>
			</g>
			<g>
				<g>
					<path class="st0" d="M1548.9,384.1c14.2,0,28.4-6.1,28.4-20.3c0-13.7-13.2-21.4-29-21.4c-14.7,0-27.9,7.6-27.9,21.4
						C1520.4,378,1534.7,384.1,1548.9,384.1 M1528.1,278c18.3,0,37.1,4.6,47.7,10.2V280c0-10.7-10.2-21.3-35-21.3
						c-21.3,0-43.7,5.6-65.5,15.2l-36.6-64c29-19.8,73.6-34,113.7-34c97,0,121.9,52.8,121.9,115.3v159.5H1586l-5.6-14.7
						c-14.7,15.2-37.6,21.3-63.5,21.3c-48.2,0-95-29.9-95-89.9C1421.9,313.5,1463.1,278,1528.1,278"/>
				</g>
			</g>
			<g>
				<g>
					<rect x="1716" y="83.5" class="st0" width="98.5" height="367.2"/>
				</g>
			</g>
			<g>
				<g>
					<path class="st0" d="M1857.1,355.2V182.5h98.5v157.9c0,20.3,12.2,30,28.5,30c19.3,0,28.4-13.2,28.4-28.4V182.5h98.5v268.1h-96
						v-25.4c-9.7,13.7-34,32-67,32C1884.6,457.2,1857.1,417.1,1857.1,355.2"/>
				</g>
			</g>
			<g>
				<g>
					<path class="st0" d="M2288.8,260.2c-31.5,0-49.8,23.4-49.8,56.4c0,34,18.8,55.9,49.8,55.9c32.5,0,49.3-25.4,49.3-55.9
						C2338.1,281,2318.2,260.2,2288.8,260.2 M2433.5,450.6h-91.4v-17.3c-10.2,10.2-33.5,23.9-68.5,23.9
						c-78.2,0-133.1-58.4-133.1-140.7c0-82.8,48.7-140.7,126.4-140.7c34.5,0,58.4,15.2,68.1,23.4V83.5h98.5V450.6z"/>
				</g>
			</g>
		</g>
	</g>
	<g>
		<g>
			<path class="st0" d="M417.4,726.9c3.3,9.6,10.4,19.6,28.1,19.6c13.9,0,24.4-8.6,24.4-22.8c0-33.5-56.1-24.1-56.1-61.4
				c0-15.2,11.6-27.9,31.2-27.9c19.3,0,28.4,13,31.2,20.5l-7.1,2.6c-2.8-6.1-9.9-15.5-24.1-15.5c-15,0-22.8,9.2-22.8,20.5
				c0,29.9,56.3,23.3,56.3,60.7c0,17.2-12.7,31-33.2,31c-21.3,0-31.2-12.9-35.2-24.8L417.4,726.9z"/>
			<path class="st0" d="M445.3,755.5c-24.2,0-33.1-16-36.3-25.6l-0.4-1.1l9.6-3.5l0.4,1.2c4.4,12.7,13.2,18.8,26.9,18.8
				c13.9,0,23.2-8.7,23.2-21.5c0-15.5-12.7-21.4-26.2-27.6c-14.7-6.8-29.9-13.8-29.9-33.8c0-17.2,13.3-29.1,32.4-29.1
				c23.2,0,31,17.7,32.4,21.3l0.4,1.2l-9.3,3.5l-0.5-1c-2-4.4-8.4-14.8-23-14.8c-13.1,0-21.5,7.5-21.5,19.2
				c0,13.3,12.2,19.1,25.1,25.3c14.6,7,31.2,14.9,31.2,35.5C479.7,742.3,465.5,755.5,445.3,755.5z M411.7,730.3
				c3.3,9,11.9,22.8,33.6,22.8c18.8,0,31.9-12.3,31.9-29.8c0-19-15.2-26.2-29.8-33.2c-13.6-6.5-26.5-12.6-26.5-27.5
				c0-15,12.1-21.7,24-21.7c15,0,22,9.9,24.7,15.2l4.8-1.8c-2.2-4.9-9.9-18.5-29.6-18.5c-17.6,0-30,11-30,26.7
				c0,18.4,14.5,25.1,28.5,31.5c13.6,6.3,27.7,12.8,27.7,29.9c0,14.4-10.3,24-25.7,24c-14.3,0-24-6.5-28.8-19.3L411.7,730.3z"/>
		</g>
		<g>
			<path class="st0" d="M508.2,636.6h52.7v7.8h-44.2v44.9h38.8v7.8h-38.8v47.4h46.1v7.8h-54.5V636.6z"/>
			<path class="st0" d="M563.9,753.4h-56.9v-118h55.1v10.2h-44.2V688h38.8v10.2h-38.8v44.9h46.1V753.4z M509.4,750.9h52v-5.3h-46.1
				v-49.8h38.8v-5.3h-38.8v-47.4h44.2v-5.3h-50.2V750.9z"/>
		</g>
		<g>
			<path class="st0" d="M683.5,739.9c-3.1,3.3-17.2,14.4-38.3,14.4c-32.8,0-57.9-25.7-57.9-59.9c0-34.2,25.7-59.9,57.4-59.9
				c18.3,0,31,8.1,36.5,12.7l-3,7.6c-4-3.5-16.2-12.4-33.5-12.4c-26.9,0-48.7,22.1-48.7,52c0,29.9,20.6,52,49.2,52
				c20,0,32.2-10.9,35.5-13.9L683.5,739.9z"/>
			<path class="st0" d="M645.2,755.5c-33.7,0-59.2-26.3-59.2-61.2c0-34.3,25.8-61.2,58.7-61.2c19.8,0,32.7,9.1,37.3,13l0.7,0.6
				l-3.9,10.1l-1.3-1.2c-3.2-2.8-15.2-12.1-32.7-12.1c-26.6,0-47.5,22.3-47.5,50.8c0,29.4,20.2,50.8,48,50.8
				c8.9,0,22.2-2.4,34.7-13.5l1.3-1.2l3.7,9.8l-0.5,0.6C684.2,740.9,670.1,755.5,645.2,755.5z M644.7,635.7
				c-31.5,0-56.2,25.8-56.2,58.7c0,33.5,24.4,58.7,56.7,58.7c18.9,0,32.5-9.2,36.9-13.4l-1.9-5c-12.6,10.7-25.9,13-35,13
				c-29.2,0-50.4-22.4-50.4-53.2c0-29.8,21.9-53.2,49.9-53.2c16.5,0,28.3,7.8,33,11.6l2-5.2C675.4,644.1,663.1,635.7,644.7,635.7z"
				/>
		</g>
		<g>
			<path class="st0" d="M712.2,636.6h26.6c22.4,0,34.5,14.5,34.5,31.4c0,14.2-8.6,25.4-21.5,29.7l29.4,54.5h-9.4l-27.9-52.8h-23.3
				v52.8h-8.4V636.6z M739.1,691.7c15.5,0,25.3-9.1,25.3-23.8c0-13.7-9.2-23.6-25.8-23.6h-18v47.4H739.1z"/>
			<path class="st0" d="M783.2,753.4H771l-27.9-52.8h-21.3v52.8h-10.9v-118h27.8c24.7,0,35.7,16.4,35.7,32.6c0,14-8,25.5-20.9,30.4
				L783.2,753.4z M772.5,750.9h6.6L750,697l1.4-0.5c12.7-4.2,20.6-15.2,20.6-28.5c0-15-10.3-30.1-33.3-30.1h-25.3v113.1h5.9v-52.8
				h25.3L772.5,750.9z M739.1,693h-19.7v-49.8h19.2c16.4,0,27,9.7,27,24.8C765.6,683.4,755.4,693,739.1,693z M721.8,690.5h17.2
				c14.8,0,24-8.6,24-22.5c0-13.8-9.4-22.4-24.5-22.4h-16.8V690.5z"/>
		</g>
		<g>
			<path class="st0" d="M807.6,636.6h52.7v7.8H816v44.9h38.8v7.8H816v47.4h46.1v7.8h-54.5V636.6z"/>
			<path class="st0" d="M863.3,753.4h-56.9v-118h55.1v10.2h-44.2V688H856v10.2h-38.8v44.9h46.1V753.4z M808.8,750.9h52v-5.3h-46.1
				v-49.8h38.8v-5.3h-38.8v-47.4H859v-5.3h-50.2V750.9z"/>
		</g>
		<g>
			<path class="st0" d="M916.4,644.4h-33.2v-7.8H958v7.8h-33.2v107.8h-8.4V644.4z"/>
			<path class="st0" d="M926,753.4h-10.9V645.6h-33.2v-10.2h77.2v10.2H926V753.4z M917.6,750.9h5.9V643.1h33.2v-5.3h-72.3v5.3h33.2
				V750.9z"/>
		</g>
		<g>
			<path class="st0" d="M989,710.7l-15.7,41.4h-8.6l44.2-115.5h8.3l44.2,115.5h-8.6l-15.7-41.4H989z M1013.1,646.2L992,703h42.3
				L1013.1,646.2z"/>
			<path class="st0" d="M1063.3,753.4H1052l-15.7-41.4h-46.5l-15.7,41.4h-11.2l45.2-118h10L1063.3,753.4z M1053.7,750.9h5.9
				l-43.3-113.1h-6.6l-43.3,113.1h5.9l15.7-41.4h49.9L1053.7,750.9z M1036,704.2h-45.8l22.9-61.6L1036,704.2z M993.7,701.7h38.7
				l-19.3-52L993.7,701.7z"/>
		</g>
		<g>
			<path class="st0" d="M1086.2,636.6h26.6c22.4,0,34.5,14.5,34.5,31.4c0,14.2-8.6,25.4-21.5,29.7l29.4,54.5h-9.4l-27.9-52.8h-23.3
				v52.8h-8.4V636.6z M1113.1,691.7c15.5,0,25.3-9.1,25.3-23.8c0-13.7-9.2-23.6-25.8-23.6h-18v47.4H1113.1z"/>
			<path class="st0" d="M1157.3,753.4h-12.2l-27.9-52.8h-21.3v52.8H1085v-118h27.8c24.7,0,35.7,16.4,35.7,32.6
				c0,14-8,25.5-20.9,30.4L1157.3,753.4z M1146.5,750.9h6.6L1124,697l1.4-0.5c12.7-4.2,20.6-15.2,20.6-28.5
				c0-15-10.3-30.1-33.3-30.1h-25.3v113.1h5.9v-52.8h25.3L1146.5,750.9z M1113.1,693h-19.7v-49.8h19.2c16.4,0,27,9.7,27,24.8
				C1139.6,683.4,1129.5,693,1113.1,693z M1095.9,690.5h17.2c14.8,0,24-8.6,24-22.5c0-13.8-9.4-22.4-24.5-22.4h-16.8V690.5z"/>
		</g>
		<g>
			<path class="st0" d="M1192.8,605.6h9.6l-14,23.3h-7.6L1192.8,605.6z M1181.6,636.6h8.4v115.5h-8.4V636.6z"/>
			<path class="st0" d="M1191.3,753.4h-10.9v-118h10.9V753.4z M1182.9,750.9h5.9V637.8h-5.9V750.9z M1189.1,630.1h-10.3l13.3-25.7
				h12.5L1189.1,630.1z M1182.8,627.6h4.9l12.5-20.8h-6.6L1182.8,627.6z"/>
		</g>
		<g>
			<path class="st0" d="M1239.1,710.7l-15.7,41.4h-8.6l44.2-115.5h8.3l44.2,115.5h-8.6l-15.7-41.4H1239.1z M1263.2,646.2L1242,703
				h42.3L1263.2,646.2z"/>
			<path class="st0" d="M1313.3,753.4h-11.2l-15.7-41.4h-46.5l-15.7,41.4H1213l45.2-118h10L1313.3,753.4z M1303.8,750.9h5.9
				l-43.3-113.1h-6.6l-43.3,113.1h5.9l15.7-41.4h49.9L1303.8,750.9z M1286.1,704.2h-45.8l22.9-61.6L1286.1,704.2z M1243.8,701.7
				h38.7l-19.3-52L1243.8,701.7z"/>
		</g>
		<g>
			<path class="st0" d="M1388,636.6h20.5c40.1,0,62.2,21.6,62.2,57.8c0,39-23.3,57.8-62.2,57.8H1388V636.6z M1411.9,744.4
				c30.7,0,50.2-17.2,50.2-50c0-31.2-19.5-50-50.2-50h-15.5v100H1411.9z"/>
			<path class="st0" d="M1408.4,753.4h-21.7v-118h21.7c40.3,0,63.5,21.5,63.5,59C1471.9,732.4,1449.3,753.4,1408.4,753.4z
				 M1389.2,750.9h19.2c39.9,0,61-19.6,61-56.5c0-35.9-22.2-56.5-61-56.5h-19.2V750.9z M1411.9,745.6h-16.8V643.1h16.8
				c31.7,0,51.4,19.6,51.4,51.2C1463.3,726.9,1444.6,745.6,1411.9,745.6z M1397.6,743.2h14.3c31.1,0,48.9-17.8,48.9-48.8
				c0-30.1-18.8-48.8-48.9-48.8h-14.3V743.2z"/>
		</g>
		<g>
			<path class="st0" d="M1499.9,636.6h52.7v7.8h-44.2v44.9h38.8v7.8h-38.8v47.4h46.1v7.8h-54.5V636.6z"/>
			<path class="st0" d="M1555.6,753.4h-56.9v-118h55.1v10.2h-44.2V688h38.8v10.2h-38.8v44.9h46.1V753.4z M1501.1,750.9h52v-5.3H1507
				v-49.8h38.8v-5.3H1507v-47.4h44.2v-5.3h-50.2V750.9z"/>
		</g>
		<g>
			<path class="st0" d="M1637.4,726.9c3.3,9.6,10.4,19.6,28.1,19.6c13.9,0,24.4-8.6,24.4-22.8c0-33.5-56.1-24.1-56.1-61.4
				c0-15.2,11.6-27.9,31.2-27.9c19.3,0,28.4,13,31.2,20.5l-7.1,2.6c-2.8-6.1-9.9-15.5-24.1-15.5c-15,0-22.8,9.2-22.8,20.5
				c0,29.9,56.3,23.3,56.3,60.7c0,17.2-12.7,31-33.2,31c-21.3,0-31.2-12.9-35.2-24.8L1637.4,726.9z"/>
			<path class="st0" d="M1665.3,755.5c-24.2,0-33.1-16-36.3-25.6l-0.4-1.1l9.6-3.5l0.4,1.2c4.4,12.7,13.2,18.8,26.9,18.8
				c13.9,0,23.2-8.7,23.2-21.5c0-15.5-12.7-21.4-26.2-27.6c-14.7-6.8-29.9-13.8-29.9-33.8c0-17.2,13.3-29.1,32.4-29.1
				c23.2,0,31,17.7,32.4,21.3l0.4,1.2l-9.3,3.5l-0.5-1c-2-4.4-8.4-14.8-23-14.8c-13.1,0-21.5,7.5-21.5,19.2
				c0,13.3,12.2,19.1,25.1,25.3c14.6,7,31.2,14.9,31.2,35.5C1699.7,742.3,1685.5,755.5,1665.3,755.5z M1631.7,730.3
				c3.3,9,11.9,22.8,33.6,22.8c18.8,0,31.9-12.3,31.9-29.8c0-19-15.2-26.2-29.8-33.2c-13.6-6.5-26.5-12.6-26.5-27.5
				c0-15,12.1-21.7,24-21.7c15,0,22,9.9,24.7,15.2l4.8-1.8c-2.2-4.9-9.9-18.5-29.6-18.5c-17.6,0-30,11-30,26.7
				c0,18.4,14.5,25.1,28.5,31.5c13.6,6.3,27.7,12.8,27.7,29.9c0,14.4-10.3,24-25.7,24c-14.3,0-24-6.5-28.8-19.3L1631.7,730.3z"/>
		</g>
		<g>
			<path class="st0" d="M1740.9,710.7l-15.7,41.4h-8.6l44.2-115.5h8.3l44.2,115.5h-8.6l-15.7-41.4H1740.9z M1765,646.2l-21.1,56.8
				h42.3L1765,646.2z"/>
			<path class="st0" d="M1815.1,753.4h-11.2l-15.7-41.4h-46.5l-15.7,41.4h-11.2l45.2-118h10L1815.1,753.4z M1805.6,750.9h5.9
				l-43.3-113.1h-6.6l-43.3,113.1h5.9l15.7-41.4h49.9L1805.6,750.9z M1787.9,704.2H1742l22.9-61.6L1787.9,704.2z M1745.6,701.7h38.7
				l-19.3-52L1745.6,701.7z"/>
		</g>
		<g>
			<path class="st0" d="M1838.1,636.6h8.4v107.8h46.1v7.8h-54.5V636.6z"/>
			<path class="st0" d="M1893.8,753.4h-56.9v-118h10.9v107.8h46.1V753.4z M1839.3,750.9h52v-5.3h-46.1V637.8h-5.9V750.9z"/>
		</g>
		<g>
			<path class="st0" d="M1915.8,711.5v-74.9h8.4v74.8c0,21.5,11.2,35,33.2,35c22,0,33.2-13.5,33.2-35v-74.8h8.4v74.9
				c0,25.9-15,42.8-41.6,42.8S1915.8,737.5,1915.8,711.5z"/>
			<path class="st0" d="M1957.4,755.5c-26.4,0-42.8-16.9-42.8-44v-76.2h10.9v76c0,21.8,11.3,33.8,31.9,33.8
				c20.6,0,31.9-12,31.9-33.8v-76h10.9v76.2C2000.3,738.7,1983.8,755.5,1957.4,755.5z M1917.1,637.8v73.7c0,26,15.1,41.5,40.4,41.5
				c25.3,0,40.4-15.5,40.4-41.5v-73.7h-5.9v73.5c0,23-12.5,36.2-34.4,36.2c-21.9,0-34.4-13.2-34.4-36.2v-73.5H1917.1z"/>
		</g>
		<g>
			<path class="st0" d="M2034.5,636.6h20.5c40.1,0,62.2,21.6,62.2,57.8c0,39-23.3,57.8-62.2,57.8h-20.5V636.6z M2058.4,744.4
				c30.7,0,50.2-17.2,50.2-50c0-31.2-19.5-50-50.2-50h-15.5v100H2058.4z"/>
			<path class="st0" d="M2055,753.4h-21.7v-118h21.7c40.3,0,63.5,21.5,63.5,59C2118.4,732.4,2095.9,753.4,2055,753.4z M2035.7,750.9
				h19.2c39.9,0,61-19.6,61-56.5c0-35.9-22.2-56.5-61-56.5h-19.2V750.9z M2058.4,745.6h-16.8V643.1h16.8c31.7,0,51.4,19.6,51.4,51.2
				C2109.9,726.9,2091.1,745.6,2058.4,745.6z M2044.2,743.2h14.3c31.1,0,48.9-17.8,48.9-48.8c0-30.1-18.8-48.8-48.9-48.8h-14.3
				V743.2z"/>
		</g>
	</g>
	<g>
		<g>
			<rect x="93.4" y="537.6" class="st0" width="2340.1" height="12.4"/>
		</g>
	</g>
</g>
</svg>
