<?xml version="1.0" encoding="utf-8"?>
<!-- Generator: Adobe Illustrator 21.1.0, SVG Export Plug-In . SVG Version: 6.00 Build 0)  -->
<svg version="1.1" id="Capa_1" xmlns="http://www.w3.org/2000/svg" xmlns:xlink="http://www.w3.org/1999/xlink" x="0px" y="0px"
	 viewBox="0 0 400 400" style="enable-background:new 0 0 400 400;" xml:space="preserve">
<g>
	<path d="M39.3,275.3L28,286.6l85.4,85.4l11.3-11.3l-37.1-37.1l27.8-27.4l33,33l1.6,1.6l0,0l14.1,14.1l11.3-11.3l-14.1-14.1
		l158.3-158.3c3.1-3.1,3.1-8.1,0-11.3l-29-29L372,39.3L360.7,28L279,109.4l-29-29c-3.1-3.1-8.1-3.1-11.3,0L80.4,238.7l-14.1-14.1
		L55,235.9l15.7,15.7l9.7,9.7l0,0l23.4,23.4L76.3,312L39.3,275.3z M91.6,250.4l27-27l39.1,39.1l11.3-11.3l-39.1-39.1L148,194
		l30.2,30.2l11.3-11.3l-29.8-30.6l18.5-18.5l39.1,39.1l11.3-11.3l-39.1-39.1l18.1-18.1l30.2,30.2l11.3-11.3l-30.2-30.2l25.4-25.4
		l58,58L150.1,308l-29-29l-5.6-5.6l0,0L91.6,250.4z"/>
</g>
</svg>
